<svg width="46" height="46" viewBox="0 0 46 46" fill="none" xmlns="http://www.w3.org/2000/svg">
<g clip-path="url(#clip0_2_91)">
<path d="M23 43.125C17.6625 43.125 12.5436 41.0047 8.76948 37.2305C4.99531 33.4564 2.875 28.3375 2.875 23C2.875 17.6625 4.99531 12.5436 8.76948 8.76948C12.5436 4.99531 17.6625 2.875 23 2.875C28.3375 2.875 33.4564 4.99531 37.2305 8.76948C41.0047 12.5436 43.125 17.6625 43.125 23C43.125 28.3375 41.0047 33.4564 37.2305 37.2305C33.4564 41.0047 28.3375 43.125 23 43.125ZM23 46C29.1 46 34.9501 43.5768 39.2635 39.2635C43.5768 34.9501 46 29.1 46 23C46 16.9 43.5768 11.0499 39.2635 6.73654C34.9501 2.42321 29.1 0 23 0C16.9 0 11.0499 2.42321 6.73654 6.73654C2.42321 11.0499 0 16.9 0 23C0 29.1 2.42321 34.9501 6.73654 39.2635C11.0499 43.5768 16.9 46 23 46Z" fill="#F8F8F8"/>
<path d="M12.3194 35.7449C12.6495 35.9355 13.0419 35.9871 13.4101 35.8885C13.7784 35.7898 14.0924 35.5489 14.283 35.2188C15.1659 33.6883 16.4365 32.4174 17.9668 31.5342C19.4971 30.6509 21.2331 30.1865 23 30.1875C26.7231 30.1875 29.9747 32.2086 31.717 35.2188C31.909 35.5462 32.2227 35.7845 32.5897 35.8815C32.9567 35.9785 33.3471 35.9264 33.6759 35.7366C34.0046 35.5468 34.2449 35.2347 34.3444 34.8684C34.4438 34.502 34.3944 34.1112 34.2067 33.7812C33.0715 31.8137 31.438 30.18 29.4706 29.0444C27.5033 27.9088 25.2716 27.3115 23 27.3125C20.7286 27.3121 18.497 27.9096 16.5298 29.0452C14.5626 30.1807 12.929 31.8141 11.7932 33.7812C11.6026 34.1114 11.551 34.5038 11.6496 34.872C11.7483 35.2403 11.9892 35.5542 12.3194 35.7449ZM20.125 18.6875C20.125 21.068 18.837 23 17.25 23C15.663 23 14.375 21.068 14.375 18.6875C14.375 16.307 15.663 14.375 17.25 14.375C18.837 14.375 20.125 16.307 20.125 18.6875ZM31.625 18.6875C31.625 21.068 30.337 23 28.75 23C27.163 23 25.875 21.068 25.875 18.6875C25.875 16.307 27.163 14.375 28.75 14.375C30.337 14.375 31.625 16.307 31.625 18.6875Z" fill="#F8F8F8"/>
</g>
<defs>
<clipPath id="clip0_2_91">
<rect width="46" height="46" fill="white"/>
</clipPath>
</defs>
</svg>
